<svg width="32" height="38" viewBox="0 0 32 38" fill="none" xmlns="http://www.w3.org/2000/svg">
<path d="M6.69604 21.6984C6.63486 21.6725 6.56816 21.6624 6.50207 21.669C6.12295 21.6955 4.13623 23.4647 3.61604 24.7431C3.26043 25.6131 3.68364 26.6123 4.55356 26.965C4.97253 27.1351 5.44192 27.132 5.85855 26.9562C6.27518 26.7804 6.60496 26.4463 6.77539 26.0275C7.1692 25.0606 7.27794 21.9335 6.69604 21.6984ZM11.4395 32.2168C11.3777 32.1933 11.3131 32.1816 11.2484 32.1874C10.8693 32.2139 8.8826 33.9831 8.36241 35.2616C8.00974 36.1315 8.43 37.1278 9.29992 37.4834C10.1698 37.8361 11.1691 37.4158 11.5218 36.5459C11.9126 35.579 12.0214 32.4549 11.4395 32.2168ZM27.4096 20.6904C27.3479 20.6639 27.2832 20.6551 27.2186 20.658C26.8394 20.6845 24.8527 22.4567 24.3325 23.7351C23.9799 24.605 24.4001 25.6013 25.27 25.9569C26.1429 26.3096 27.1392 25.8893 27.4919 25.0194C27.8857 24.0525 27.9915 20.9284 27.4096 20.6904ZM22.4722 27.9407C22.4105 27.9172 22.3458 27.9054 22.2782 27.9113C21.8991 27.9378 19.9124 29.707 19.3922 30.9854C19.0395 31.8553 19.4598 32.8546 20.3297 33.2073C21.1996 33.5629 22.1989 33.1397 22.5515 32.2697C22.9483 31.3028 23.0541 28.1788 22.4722 27.9407Z" fill="#95C8EC"/>
<path d="M6.69604 21.6984C6.63486 21.6725 6.56816 21.6624 6.50207 21.669C6.12295 21.6955 4.13623 23.4647 3.61604 24.7431C3.26043 25.6131 3.68364 26.6123 4.55356 26.965C4.97253 27.1351 5.44192 27.132 5.85855 26.9562C6.27518 26.7804 6.60496 26.4463 6.77539 26.0275C7.1692 25.0606 7.27794 21.9335 6.69604 21.6984ZM11.4395 32.2168C11.3777 32.1933 11.3131 32.1816 11.2484 32.1874C10.8693 32.2139 8.8826 33.9831 8.36241 35.2616C8.00974 36.1315 8.43 37.1278 9.29992 37.4834C10.1698 37.8361 11.1691 37.4158 11.5218 36.5459C11.9126 35.579 12.0214 32.4549 11.4395 32.2168ZM27.4096 20.6904C27.3479 20.6639 27.2832 20.6551 27.2186 20.658C26.8394 20.6845 24.8527 22.4567 24.3325 23.7351C23.9799 24.605 24.4001 25.6013 25.27 25.9569C26.1429 26.3096 27.1392 25.8893 27.4919 25.0194C27.8857 24.0525 27.9915 20.9284 27.4096 20.6904ZM22.4722 27.9407C22.4105 27.9172 22.3458 27.9054 22.2782 27.9113C21.8991 27.9378 19.9124 29.707 19.3922 30.9854C19.0395 31.8553 19.4598 32.8546 20.3297 33.2073C21.1996 33.5629 22.1989 33.1397 22.5515 32.2697C22.9483 31.3028 23.0541 28.1788 22.4722 27.9407Z" fill="#70B2E2"/>
<path d="M15.4245 18.448C15.4245 18.448 10.3578 25.4191 11.1513 25.8717C11.692 26.1803 15.4098 26.1333 15.8859 26.4331C16.362 26.7358 13.6729 31.1324 13.7052 31.3087C13.7463 31.5262 14.0667 31.9288 15.9153 30.5329C18.7778 28.3727 20.5882 25.8629 20.5882 25.8629C20.5882 25.8629 22.2751 24.417 16.8822 23.8762C16.3826 23.3825 21.0731 19.168 21.0731 19.168L15.4245 18.448Z" fill="#F8B618"/>
<path d="M15.4245 18.448C15.4245 18.448 10.3578 25.4191 11.1513 25.8717C11.692 26.1803 15.4098 26.1333 15.8859 26.4331C16.362 26.7358 13.6729 31.1324 13.7052 31.3087C13.7463 31.5262 14.0667 31.9288 15.9153 30.5329C18.7778 28.3727 20.5882 25.8629 20.5882 25.8629C20.5882 25.8629 22.2751 24.417 16.8822 23.8762C16.3826 23.3825 21.0731 19.168 21.0731 19.168L15.4245 18.448Z" fill="#FFCB28"/>
<path d="M27.6063 8.3174C27.6034 8.29976 27.6063 8.28213 27.6063 8.26449C27.6063 5.8487 25.649 3.89137 23.2332 3.89137C22.9217 3.89137 22.619 3.9237 22.328 3.98542C21.461 1.87527 19.3891 0.391113 16.9674 0.391113C15.1482 0.391113 13.5289 1.22871 12.465 2.53947C11.7604 2.18043 10.981 1.99312 10.1902 1.99283C7.5746 1.99283 5.4233 3.98542 5.1735 6.53935C2.32568 6.68923 0.0421326 9.02274 0.00392654 11.9176C-0.0342795 14.9329 2.37858 17.4104 5.39392 17.4486C5.62903 17.4516 5.85827 17.4339 6.08456 17.4104C7.24838 19.8674 9.75234 21.5661 12.6531 21.5661C14.4017 21.5661 16.0064 20.946 17.2613 19.9173C18.2194 20.6286 19.4038 21.0518 20.6881 21.0518C23.3243 21.0518 25.5402 19.2825 26.2309 16.8697C26.6659 17.0137 27.1273 17.093 27.6122 17.093C30.0368 17.093 32 15.1298 32 12.7052C31.9941 10.2835 30.0309 8.3174 27.6063 8.3174Z" fill="#E3EBEE"/>
<path d="M30.184 9.15506C31.1774 10.1572 30.475 12.4614 29.7902 13.2108C28.4442 14.6861 25.9755 14.3423 24.985 14.1277C24.7176 14.0689 24.6735 14.0895 24.5854 14.1424C24.506 14.1894 24.4707 14.2659 24.3855 14.4481C24.0652 15.1358 23.2423 16.47 21.5024 17.0049C19.6891 17.5633 17.9816 16.714 17.1793 16.2026C16.8765 16.0086 16.8619 16.0057 16.7267 16.0057C16.5885 16.0057 16.4504 16.1086 16.2858 16.2379C15.5628 16.808 13.9112 17.8102 11.3631 17.6632C8.86504 17.5192 7.43672 15.9792 6.94886 15.1887C6.85481 15.0358 6.75195 14.9095 6.64027 14.8977C6.50802 14.883 6.35813 15.0212 6.24646 15.1328C5.18256 16.1673 1.84101 16.4789 0.733032 14.7155C1.85864 16.5229 3.60142 17.4193 5.39123 17.4428C5.62634 17.4458 5.85558 17.4281 6.08188 17.4046C7.24569 19.8616 9.74965 21.5603 12.6504 21.5603C14.399 21.5603 16.0037 20.9402 17.2586 19.9115C18.2167 20.6227 19.4011 21.046 20.6854 21.046C23.3216 21.046 25.5376 19.2767 26.2282 16.8639C26.6632 17.0079 27.1246 17.0872 27.6095 17.0872C30.0341 17.0872 31.9973 15.124 31.9973 12.6994C31.9944 11.4151 31.3449 9.96033 30.184 9.15506Z" fill="#B9CDD2"/>
</svg>
