<svg width="37" height="38" viewBox="0 0 37 38" fill="none" xmlns="http://www.w3.org/2000/svg">
<path d="M8.69604 21.6984C8.63486 21.6725 8.56816 21.6624 8.50207 21.669C8.12295 21.6955 6.13623 23.4647 5.61604 24.7431C5.26043 25.613 5.68364 26.6123 6.55356 26.9649C6.97253 27.1351 7.44192 27.1319 7.85855 26.9561C8.27518 26.7803 8.60496 26.4463 8.77539 26.0274C9.1692 25.0605 9.27794 21.9335 8.69604 21.6984ZM13.4395 32.2168C13.3777 32.1933 13.3131 32.1815 13.2484 32.1874C12.8693 32.2139 10.8826 33.9831 10.3624 35.2615C10.0097 36.1315 10.43 37.1277 11.2999 37.4834C12.1698 37.836 13.1691 37.4158 13.5218 36.5458C13.9126 35.5789 14.0214 32.4549 13.4395 32.2168ZM29.4096 20.6903C29.3479 20.6639 29.2832 20.6551 29.2186 20.658C28.8394 20.6845 26.8527 22.4566 26.3325 23.7351C25.9799 24.605 26.4001 25.6013 27.27 25.9569C28.1429 26.3096 29.1392 25.8893 29.4919 25.0194C29.8857 24.0525 29.9915 20.9284 29.4096 20.6903ZM24.4722 27.9407C24.4105 27.9172 24.3458 27.9054 24.2782 27.9113C23.8991 27.9377 21.9124 29.707 21.3922 30.9854C21.0395 31.8553 21.4598 32.8546 22.3297 33.2072C23.1996 33.5628 24.1989 33.1396 24.5515 32.2697C24.9483 31.3028 25.0541 28.1787 24.4722 27.9407Z" fill="#95C8EC"/>
<path d="M8.69604 21.6984C8.63486 21.6725 8.56816 21.6624 8.50207 21.669C8.12295 21.6955 6.13623 23.4647 5.61604 24.7431C5.26043 25.613 5.68364 26.6123 6.55356 26.9649C6.97253 27.1351 7.44192 27.1319 7.85855 26.9561C8.27518 26.7803 8.60496 26.4463 8.77539 26.0274C9.1692 25.0605 9.27794 21.9335 8.69604 21.6984ZM13.4395 32.2168C13.3777 32.1933 13.3131 32.1815 13.2484 32.1874C12.8693 32.2139 10.8826 33.9831 10.3624 35.2615C10.0097 36.1315 10.43 37.1277 11.2999 37.4834C12.1698 37.836 13.1691 37.4158 13.5218 36.5458C13.9126 35.5789 14.0214 32.4549 13.4395 32.2168ZM29.4096 20.6903C29.3479 20.6639 29.2832 20.6551 29.2186 20.658C28.8394 20.6845 26.8527 22.4566 26.3325 23.7351C25.9799 24.605 26.4001 25.6013 27.27 25.9569C28.1429 26.3096 29.1392 25.8893 29.4919 25.0194C29.8857 24.0525 29.9915 20.9284 29.4096 20.6903ZM24.4722 27.9407C24.4105 27.9172 24.3458 27.9054 24.2782 27.9113C23.8991 27.9377 21.9124 29.707 21.3922 30.9854C21.0395 31.8553 21.4598 32.8546 22.3297 33.2072C23.1996 33.5628 24.1989 33.1396 24.5515 32.2697C24.9483 31.3028 25.0541 28.1787 24.4722 27.9407Z" fill="#70B2E2"/>
<path d="M17.4245 18.448C17.4245 18.448 12.3578 25.4191 13.1513 25.8717C13.692 26.1803 17.4098 26.1333 17.8859 26.433C18.362 26.7357 15.6729 31.1324 15.7052 31.3087C15.7463 31.5262 16.0667 31.9288 17.9153 30.5328C20.7778 28.3727 22.5882 25.8629 22.5882 25.8629C22.5882 25.8629 24.2751 24.4169 18.8822 23.8762C18.3826 23.3824 23.0731 19.168 23.0731 19.168L17.4245 18.448Z" fill="#F8B618"/>
<path d="M17.4245 18.448C17.4245 18.448 12.3578 25.4191 13.1513 25.8717C13.692 26.1803 17.4098 26.1333 17.8859 26.433C18.362 26.7357 15.6729 31.1324 15.7052 31.3087C15.7463 31.5262 16.0667 31.9288 17.9153 30.5328C20.7778 28.3727 22.5882 25.8629 22.5882 25.8629C22.5882 25.8629 24.2751 24.4169 18.8822 23.8762C18.3826 23.3824 23.0731 19.168 23.0731 19.168L17.4245 18.448Z" fill="#FFCB28"/>
<path d="M29.6063 8.31737C29.6034 8.29973 29.6063 8.2821 29.6063 8.26446C29.6063 5.84867 27.649 3.89134 25.2332 3.89134C24.9217 3.89134 24.619 3.92367 24.328 3.98539C23.461 1.87524 21.3891 0.391083 18.9674 0.391083C17.1482 0.391083 15.5289 1.22868 14.465 2.53944C13.7604 2.1804 12.981 1.99308 12.1902 1.9928C9.5746 1.9928 7.4233 3.98539 7.1735 6.53932C4.32568 6.6892 2.04213 9.02271 2.00393 11.9175C1.96572 14.9329 4.37858 17.4104 7.39392 17.4486C7.62903 17.4515 7.85827 17.4339 8.08456 17.4104C9.24838 19.8673 11.7523 21.566 14.6531 21.566C16.4017 21.566 18.0064 20.9459 19.2613 19.9173C20.2194 20.6285 21.4038 21.0517 22.6881 21.0517C25.3243 21.0517 27.5402 19.2825 28.2309 16.8696C28.6659 17.0136 29.1273 17.093 29.6122 17.093C32.0368 17.093 34 15.1298 34 12.7052C33.9941 10.2835 32.0309 8.31737 29.6063 8.31737Z" fill="#E3EBEE"/>
<path d="M32.184 9.15506C33.1774 10.1572 32.475 12.4614 31.7902 13.2108C30.4442 14.6861 27.9755 14.3423 26.985 14.1277C26.7176 14.0689 26.6735 14.0895 26.5854 14.1424C26.506 14.1894 26.4707 14.2659 26.3855 14.4481C26.0652 15.1358 25.2423 16.47 23.5024 17.0049C21.6891 17.5633 19.9816 16.714 19.1793 16.2026C18.8765 16.0086 18.8619 16.0057 18.7267 16.0057C18.5885 16.0057 18.4504 16.1086 18.2858 16.2379C17.5628 16.808 15.9112 17.8102 13.3631 17.6632C10.865 17.5192 9.43672 15.9792 8.94886 15.1887C8.85481 15.0358 8.75195 14.9095 8.64027 14.8977C8.50802 14.883 8.35813 15.0212 8.24646 15.1328C7.18256 16.1673 3.84101 16.4789 2.73303 14.7155C3.85864 16.5229 5.60142 17.4193 7.39123 17.4428C7.62634 17.4458 7.85558 17.4281 8.08188 17.4046C9.24569 19.8616 11.7497 21.5603 14.6504 21.5603C16.399 21.5603 18.0037 20.9402 19.2586 19.9115C20.2167 20.6227 21.4011 21.046 22.6854 21.046C25.3216 21.046 27.5376 19.2767 28.2282 16.8639C28.6632 17.0079 29.1246 17.0872 29.6095 17.0872C32.0341 17.0872 33.9973 15.124 33.9973 12.6994C33.9944 11.4151 33.3449 9.96033 32.184 9.15506Z" fill="#B9CDD2"/>
<rect y="34.1492" width="48.2942" height="3.55475" rx="1.77738" transform="rotate(-45 0 34.1492)" fill="#FF3838"/>
</svg>
