<svg width="38" height="36" viewBox="0 0 38 36" fill="none" xmlns="http://www.w3.org/2000/svg">
<path d="M19.0466 35.5288C10.2916 35.5288 0.846313 30.0373 0.846313 17.9875C0.846313 5.93764 10.2916 0.446167 19.0466 0.446167C23.9105 0.446167 28.3978 2.04654 31.7241 4.96486C35.3327 8.1656 37.2469 12.6843 37.2469 17.9875C37.2469 23.2907 35.3327 27.778 31.7241 30.9787C28.3978 33.8971 23.8791 35.5288 19.0466 35.5288Z" fill="url(#paint0_radial_6_242)"/>
<path d="M34.0744 7.55997C35.7469 10.2586 36.6193 13.4719 36.6193 17.0461C36.6193 22.3493 34.7051 26.8366 31.0964 30.0373C27.7702 32.9557 23.2515 34.5874 18.419 34.5874C12.7518 34.5874 6.80844 32.281 3.30017 27.3889C6.67664 32.9306 13.0279 35.5288 19.0466 35.5288C23.8791 35.5288 28.3978 33.8971 31.724 30.9787C35.3327 27.778 37.2469 23.2907 37.2469 17.9875C37.2469 13.9897 36.158 10.4375 34.0744 7.55997Z" fill="#EB8F00"/>
<path d="M19.1721 27.687C15.5603 27.687 12.9809 25.8042 12.2058 24.6306C12.0627 24.4445 11.9726 24.2232 11.945 23.9901C11.9174 23.757 11.9533 23.5208 12.0489 23.3064C12.1964 23.0271 12.4882 22.8545 12.8051 22.8639C12.9213 22.8639 13.0374 22.8828 13.1472 22.9173C15.1005 23.5078 17.1315 23.8019 19.1721 23.7896C21.2118 23.8022 23.2452 23.5072 25.197 22.9173C25.3069 22.8828 25.423 22.8639 25.5391 22.8639C25.856 22.8545 26.1478 23.0271 26.2953 23.3064C26.391 23.5208 26.4269 23.757 26.3992 23.9901C26.3716 24.2232 26.2815 24.4445 26.1384 24.6306C25.3634 25.8105 22.7839 27.687 19.1721 27.687ZM38 12.5023C38 12.5023 36.6632 12.5306 36.6632 13.6006C36.6632 16.2428 36.6946 21.9131 29.7597 21.9131C24.218 21.9131 21.5727 19.0513 21.1271 15.8913C20.9451 14.5765 20.4995 13.1456 19.1596 13.1456C17.8196 13.1456 17.3866 14.5671 17.2046 15.8913C16.759 19.0513 14.1137 21.9131 8.57201 21.9131C1.64962 21.9131 1.66845 16.2428 1.66845 13.6006C1.66845 12.5306 0.331665 12.5023 0.331665 12.5023V9.88525C2.47987 9.60347 4.64507 9.47136 6.8116 9.48986C10.7278 9.48986 12.2874 9.48986 15.4034 9.80366C17.2454 9.98566 19.169 10.0076 19.169 10.0076C19.169 10.0076 21.0831 9.98566 22.9346 9.80366C26.0506 9.48986 27.6102 9.48986 31.5264 9.48986C33.6916 9.47103 35.8536 9.60597 38 9.88525V12.5023Z" fill="#422B0D"/>
<path d="M5.71637 14.567C5.68499 15.0691 5.48416 15.5335 4.99149 15.6277C4.93501 15.6371 4.88166 15.6433 4.82518 15.6433C4.61039 15.6424 4.40292 15.5652 4.23972 15.4255C4.07652 15.2859 3.96818 15.0929 3.93399 14.8808C3.74257 14.0147 3.95282 13.1079 4.5051 12.4144C4.75647 12.1107 5.07201 11.8665 5.42904 11.6994C5.78606 11.5323 6.1757 11.4464 6.5699 11.4479C7.04373 11.4039 7.46422 11.7522 7.50815 12.2261C7.50815 12.2355 7.51129 12.2449 7.51129 12.2575C7.51129 12.8474 7.0406 13.0984 6.5699 13.2616C6.05527 13.4938 5.72264 14.0022 5.71637 14.567ZM25.6677 14.567C25.6394 15.0691 25.4355 15.5335 24.9459 15.6277C24.8267 15.6502 24.7041 15.6486 24.5855 15.6231C24.4669 15.5976 24.3546 15.5486 24.2552 15.479C24.1557 15.4094 24.0713 15.3206 24.0067 15.2179C23.9421 15.1152 23.8987 15.0006 23.879 14.8808C23.6876 14.0147 23.8978 13.1079 24.4501 12.4144C24.7021 12.1106 25.0182 11.8664 25.3758 11.6993C25.7333 11.5322 26.1234 11.4463 26.5181 11.4479C26.9919 11.4039 27.4124 11.7522 27.4563 12.2261C27.4563 12.2355 27.4595 12.2449 27.4595 12.2575C27.4595 12.8474 26.9888 13.0984 26.5181 13.2616C26.2668 13.3757 26.0532 13.5591 25.9026 13.7904C25.752 14.0216 25.6705 14.2911 25.6677 14.567Z" fill="#896024"/>
<defs>
<radialGradient id="paint0_radial_6_242" cx="0" cy="0" r="1" gradientUnits="userSpaceOnUse" gradientTransform="translate(19.0466 17.9875) scale(17.874 17.874)">
<stop offset="0.5" stop-color="#FDE030"/>
<stop offset="0.92" stop-color="#F7C02B"/>
<stop offset="1" stop-color="#F4A223"/>
</radialGradient>
</defs>
</svg>
