<svg width="44" height="44" viewBox="0 0 44 44" fill="none" xmlns="http://www.w3.org/2000/svg">
<path d="M14.4375 29.5721V6.14625C14.4375 5.06317 14.0072 4.02445 13.2414 3.2586C12.4755 2.49275 11.4368 2.0625 10.3538 2.0625H10.2712C9.18817 2.0625 8.14945 2.49275 7.3836 3.2586C6.61775 4.02445 6.1875 5.06317 6.1875 6.14625V29.5721C4.52031 30.8261 3.4375 32.8158 3.4375 35.0625C3.4375 38.8596 6.51544 41.9375 10.3125 41.9375C14.1096 41.9375 17.1875 38.8596 17.1875 35.0625C17.1875 32.8158 16.1047 30.8261 14.4375 29.5721Z" fill="#E6E6E6"/>
<path d="M11.6875 6.17375C11.6875 5.81272 11.5441 5.46648 11.2888 5.2112C11.0335 4.95592 10.6873 4.8125 10.3262 4.8125H10.2987C10.12 4.8125 9.94296 4.84771 9.77781 4.91612C9.61266 4.98453 9.46259 5.0848 9.33619 5.2112C9.20978 5.3376 9.10952 5.48767 9.04111 5.65282C8.9727 5.81798 8.93749 5.99499 8.93749 6.17375V31.1774C8.02048 31.5017 7.24763 32.1396 6.75554 32.9786C6.26344 33.8176 6.08379 34.8035 6.24835 35.7621C6.4129 36.7207 6.91106 37.5903 7.65477 38.2171C8.39848 38.8439 9.33985 39.1876 10.3125 39.1875C10.8783 39.3869 11.4809 39.4605 12.0781 39.4029C12.6753 39.3454 13.2528 39.1582 13.7702 38.8544C14.2876 38.5506 14.7324 38.1375 15.0736 37.644C15.4148 37.1505 15.6441 36.5884 15.7457 35.9971C15.8472 35.4058 15.8184 34.7994 15.6613 34.2204C15.5042 33.6413 15.2226 33.1035 14.8361 32.6446C14.4497 32.1856 13.9677 31.8166 13.4239 31.5632C12.8801 31.3098 12.2875 31.1781 11.6875 31.1774V6.17375Z" fill="white"/>
<path d="M11.6875 31.1774V11.6875H8.93749V31.1774C8.02048 31.5017 7.24763 32.1396 6.75554 32.9786C6.26344 33.8176 6.08379 34.8035 6.24835 35.7621C6.4129 36.7207 6.91106 37.5903 7.65477 38.2171C8.39848 38.8439 9.33985 39.1877 10.3125 39.1875C10.8783 39.387 11.4809 39.4605 12.0781 39.4029C12.6753 39.3454 13.2528 39.1582 13.7702 38.8544C14.2876 38.5506 14.7324 38.1375 15.0736 37.644C15.4148 37.1505 15.6441 36.5884 15.7457 35.9971C15.8472 35.4058 15.8184 34.7994 15.6613 34.2204C15.5042 33.6413 15.2226 33.1035 14.8361 32.6446C14.4497 32.1856 13.9677 31.8166 13.4239 31.5632C12.8801 31.3098 12.2875 31.1781 11.6875 31.1774ZM16.5 12.375H19.25V13.75H16.5V12.375ZM16.5 15.125H19.25V16.5H16.5V15.125ZM16.5 17.875H19.25V19.25H16.5V17.875ZM16.5 20.625H19.25V22H16.5V20.625ZM16.5 23.375H19.25V24.75H16.5V23.375ZM16.5 26.125H19.25V27.5H16.5V26.125Z" fill="#D43239"/>
<path d="M35.75 6.14625C35.75 5.06317 35.3197 4.02445 34.5539 3.2586C33.788 2.49275 32.7493 2.0625 31.6663 2.0625H31.5837C31.0475 2.0625 30.5164 2.16813 30.021 2.37336C29.5255 2.57858 29.0753 2.87939 28.6961 3.2586C28.3169 3.63781 28.0161 4.088 27.8109 4.58347C27.6056 5.07893 27.5 5.60996 27.5 6.14625V29.5721C25.8328 30.8268 24.75 32.8158 24.75 35.0625C24.75 38.8596 27.8279 41.9375 31.625 41.9375C35.4221 41.9375 38.5 38.8596 38.5 35.0625C38.5 32.8158 37.4172 30.8261 35.75 29.5721V6.14625Z" fill="#E6E6E6"/>
<path d="M33 31.1774V6.17375C33 5.81272 32.8566 5.46648 32.6013 5.2112C32.346 4.95592 31.9998 4.8125 31.6388 4.8125H31.6113C31.2502 4.8125 30.904 4.95592 30.6487 5.2112C30.3934 5.46648 30.25 5.81272 30.25 6.17375V31.1774C29.333 31.5017 28.5601 32.1396 28.0681 32.9786C27.576 33.8176 27.3963 34.8035 27.5609 35.7621C27.7254 36.7207 28.2236 37.5903 28.9673 38.2171C29.711 38.8439 30.6524 39.1876 31.625 39.1875C32.1909 39.3869 32.7934 39.4605 33.3906 39.4029C33.9879 39.3454 34.5653 39.1582 35.0827 38.8544C35.6001 38.5506 36.0449 38.1375 36.3861 37.644C36.7273 37.1505 36.9567 36.5884 37.0582 35.9971C37.1597 35.4058 37.1309 34.7994 36.9738 34.2204C36.8167 33.6413 36.5351 33.1035 36.1487 32.6446C35.7622 32.1856 35.2803 31.8166 34.7364 31.5632C34.1926 31.3098 33.6 31.1781 33 31.1774Z" fill="white"/>
<path d="M33 31.1774V19.9375H30.25V31.1774C29.333 31.5017 28.5601 32.1396 28.0681 32.9786C27.576 33.8176 27.3963 34.8035 27.5609 35.7621C27.7254 36.7207 28.2236 37.5903 28.9673 38.2171C29.711 38.8439 30.6524 39.1877 31.625 39.1875C32.1909 39.3869 32.7934 39.4605 33.3906 39.4029C33.9879 39.3454 34.5653 39.1582 35.0827 38.8544C35.6001 38.5506 36.0449 38.1375 36.3861 37.644C36.7273 37.1505 36.9567 36.5884 37.0582 35.9971C37.1597 35.4058 37.1309 34.7994 36.9738 34.2204C36.8167 33.6413 36.5351 33.1035 36.1487 32.6446C35.7622 32.1856 35.2803 31.8166 34.7364 31.5632C34.1926 31.3098 33.6 31.1781 33 31.1774ZM37.8125 23.375H40.5625V24.75H37.8125V23.375ZM37.8125 20.625H40.5625V22H37.8125V20.625ZM37.8125 26.125H40.5625V27.5H37.8125V26.125Z" fill="#3EBBDD"/>
</svg>
